<svg width="360" height="283" viewBox="0 0 360 283" fill="none" xmlns="http://www.w3.org/2000/svg">
<g filter="url(#filter0_dd_150_7032)">
<g clip-path="url(#clip0_150_7032)">
<rect x="20" width="320" height="294" rx="12" fill="white"/>
<path d="M44.6364 16.1307V14.3636H53.9205V16.1307H50.3239V26H48.233V16.1307H44.6364ZM58.2173 26.1705C57.3423 26.1705 56.5866 25.9886 55.9503 25.625C55.3177 25.2576 54.831 24.7386 54.4901 24.0682C54.1491 23.3939 53.9787 22.6004 53.9787 21.6875C53.9787 20.7898 54.1491 20.0019 54.4901 19.3239C54.8348 18.642 55.3158 18.1117 55.9332 17.733C56.5507 17.3504 57.276 17.1591 58.1094 17.1591C58.6473 17.1591 59.1548 17.2462 59.6321 17.4205C60.1132 17.5909 60.5374 17.8561 60.9048 18.2159C61.276 18.5758 61.5677 19.0341 61.7798 19.5909C61.992 20.1439 62.098 20.803 62.098 21.5682V22.1989H54.9446V20.8125H60.1264C60.1226 20.4186 60.0374 20.0682 59.8707 19.7614C59.7041 19.4508 59.4711 19.2064 59.1719 19.0284C58.8764 18.8504 58.5317 18.7614 58.1378 18.7614C57.7173 18.7614 57.348 18.8636 57.0298 19.0682C56.7116 19.2689 56.4635 19.5341 56.2855 19.8636C56.1113 20.1894 56.0223 20.5473 56.0185 20.9375V22.1477C56.0185 22.6553 56.1113 23.0909 56.2969 23.4545C56.4825 23.8144 56.742 24.0909 57.0753 24.2841C57.4086 24.4735 57.7988 24.5682 58.2457 24.5682C58.545 24.5682 58.8158 24.5265 59.0582 24.4432C59.3007 24.3561 59.5109 24.2292 59.6889 24.0625C59.867 23.8958 60.0014 23.6894 60.0923 23.4432L62.0128 23.6591C61.8916 24.1667 61.6605 24.6098 61.3196 24.9886C60.9825 25.3636 60.5507 25.6553 60.0241 25.8636C59.4976 26.0682 58.8954 26.1705 58.2173 26.1705ZM65.3324 17.2727L67.0938 20.4943L68.8835 17.2727H71.0597L68.429 21.6364L71.1051 26H68.9403L67.0938 22.858L65.2642 26H63.0824L65.7415 21.6364L63.1506 17.2727H65.3324ZM77.0085 17.2727V18.8636H71.9915V17.2727H77.0085ZM73.2301 15.1818H75.2869V23.375C75.2869 23.6515 75.3286 23.8636 75.4119 24.0114C75.4991 24.1553 75.6127 24.2538 75.7528 24.3068C75.893 24.3598 76.0483 24.3864 76.2188 24.3864C76.3475 24.3864 76.465 24.3769 76.571 24.358C76.6809 24.339 76.7642 24.322 76.821 24.3068L77.1676 25.9148C77.0578 25.9527 76.9006 25.9943 76.696 26.0398C76.4953 26.0852 76.2491 26.1117 75.9574 26.1193C75.4422 26.1345 74.9782 26.0568 74.5653 25.8864C74.1525 25.7121 73.8248 25.4432 73.5824 25.0795C73.3438 24.7159 73.2263 24.2614 73.2301 23.7159V15.1818Z" fill="black"/>
<rect width="320" height="44" transform="translate(20 42)" fill="#F5F5F5"/>
<path d="M49.0341 58.3636V70H47.2784V58.3636H49.0341ZM53.1534 64.8182V70H51.4545V61.2727H53.0852V62.6932H53.1932C53.3939 62.2311 53.7083 61.8598 54.1364 61.5795C54.5682 61.2992 55.1117 61.1591 55.767 61.1591C56.3617 61.1591 56.8826 61.2841 57.3295 61.5341C57.7765 61.7803 58.1231 62.1477 58.3693 62.6364C58.6155 63.125 58.7386 63.7292 58.7386 64.4489V70H57.0398V64.6534C57.0398 64.0208 56.875 63.5265 56.5455 63.1705C56.2159 62.8106 55.7633 62.6307 55.1875 62.6307C54.7936 62.6307 54.4432 62.7159 54.1364 62.8864C53.8333 63.0568 53.5928 63.3068 53.4148 63.6364C53.2405 63.9621 53.1534 64.3561 53.1534 64.8182ZM65.0909 61.2727V62.6364H60.3239V61.2727H65.0909ZM61.6023 59.1818H63.3011V67.4375C63.3011 67.767 63.3504 68.0152 63.4489 68.1818C63.5473 68.3447 63.6742 68.4564 63.8295 68.517C63.9886 68.5739 64.161 68.6023 64.3466 68.6023C64.483 68.6023 64.6023 68.5928 64.7045 68.5739C64.8068 68.5549 64.8864 68.5398 64.9432 68.5284L65.25 69.9318C65.1515 69.9697 65.0114 70.0076 64.8295 70.0455C64.6477 70.0871 64.4205 70.1098 64.1477 70.1136C63.7008 70.1212 63.2841 70.0417 62.8977 69.875C62.5114 69.7083 62.1989 69.4508 61.9602 69.1023C61.7216 68.7538 61.6023 68.3163 61.6023 67.7898V59.1818ZM70.6378 70.1761C69.7779 70.1761 69.0374 69.9924 68.4162 69.625C67.7988 69.2538 67.3215 68.733 66.9844 68.0625C66.651 67.3883 66.4844 66.5985 66.4844 65.6932C66.4844 64.7992 66.651 64.0114 66.9844 63.3295C67.3215 62.6477 67.7912 62.1155 68.3935 61.733C68.9995 61.3504 69.7079 61.1591 70.5185 61.1591C71.0109 61.1591 71.4882 61.2405 71.9503 61.4034C72.4124 61.5663 72.8272 61.822 73.1946 62.1705C73.562 62.5189 73.8518 62.9716 74.0639 63.5284C74.276 64.0814 74.3821 64.7538 74.3821 65.5455V66.1477H67.4446V64.875H72.7173C72.7173 64.428 72.6264 64.0322 72.4446 63.6875C72.2628 63.339 72.0071 63.0644 71.6776 62.8636C71.3518 62.6629 70.9692 62.5625 70.5298 62.5625C70.0526 62.5625 69.6359 62.6799 69.2798 62.9148C68.9276 63.1458 68.6548 63.4489 68.4616 63.8239C68.2723 64.1951 68.1776 64.5985 68.1776 65.0341V66.0284C68.1776 66.6117 68.2798 67.108 68.4844 67.517C68.6927 67.9261 68.9825 68.2386 69.3537 68.4545C69.7249 68.6667 70.1586 68.7727 70.6548 68.7727C70.9768 68.7727 71.2704 68.7273 71.5355 68.6364C71.8007 68.5417 72.0298 68.4015 72.223 68.2159C72.4162 68.0303 72.5639 67.8011 72.6662 67.5284L74.2741 67.8182C74.1454 68.2917 73.9143 68.7064 73.581 69.0625C73.2514 69.4148 72.8366 69.6894 72.3366 69.8864C71.8404 70.0795 71.2741 70.1761 70.6378 70.1761ZM76.267 70V61.2727H77.9091V62.6591H78C78.1591 62.1894 78.4394 61.8201 78.8409 61.5511C79.2462 61.2784 79.7045 61.142 80.2159 61.142C80.322 61.142 80.447 61.1458 80.5909 61.1534C80.7386 61.161 80.8542 61.1705 80.9375 61.1818V62.8068C80.8693 62.7879 80.7481 62.767 80.5739 62.7443C80.3996 62.7178 80.2254 62.7045 80.0511 62.7045C79.6496 62.7045 79.2917 62.7898 78.9773 62.9602C78.6667 63.1269 78.4205 63.3598 78.2386 63.6591C78.0568 63.9545 77.9659 64.2917 77.9659 64.6705V70H76.267Z" fill="#424242"/>
<path d="M47.2784 104.364H49.4091L53.1136 113.409H53.25L56.9545 104.364H59.0852V116H57.4148V107.58H57.3068L53.875 115.983H52.4886L49.0568 107.574H48.9489V116H47.2784V104.364ZM65.2628 116.176C64.4029 116.176 63.6624 115.992 63.0412 115.625C62.4238 115.254 61.9465 114.733 61.6094 114.062C61.276 113.388 61.1094 112.598 61.1094 111.693C61.1094 110.799 61.276 110.011 61.6094 109.33C61.9465 108.648 62.4162 108.116 63.0185 107.733C63.6245 107.35 64.3329 107.159 65.1435 107.159C65.6359 107.159 66.1132 107.241 66.5753 107.403C67.0374 107.566 67.4522 107.822 67.8196 108.17C68.187 108.519 68.4768 108.972 68.6889 109.528C68.901 110.081 69.0071 110.754 69.0071 111.545V112.148H62.0696V110.875H67.3423C67.3423 110.428 67.2514 110.032 67.0696 109.688C66.8878 109.339 66.6321 109.064 66.3026 108.864C65.9768 108.663 65.5942 108.562 65.1548 108.562C64.6776 108.562 64.2609 108.68 63.9048 108.915C63.5526 109.146 63.2798 109.449 63.0866 109.824C62.8973 110.195 62.8026 110.598 62.8026 111.034V112.028C62.8026 112.612 62.9048 113.108 63.1094 113.517C63.3177 113.926 63.6075 114.239 63.9787 114.455C64.3499 114.667 64.7836 114.773 65.2798 114.773C65.6018 114.773 65.8954 114.727 66.1605 114.636C66.4257 114.542 66.6548 114.402 66.848 114.216C67.0412 114.03 67.1889 113.801 67.2912 113.528L68.8991 113.818C68.7704 114.292 68.5393 114.706 68.206 115.062C67.8764 115.415 67.4616 115.689 66.9616 115.886C66.4654 116.08 65.8991 116.176 65.2628 116.176ZM74.1591 116.17C73.4545 116.17 72.8258 115.991 72.2727 115.631C71.7235 115.267 71.2917 114.75 70.9773 114.08C70.6667 113.405 70.5114 112.597 70.5114 111.653C70.5114 110.71 70.6686 109.903 70.983 109.233C71.3011 108.562 71.7367 108.049 72.2898 107.693C72.8428 107.337 73.4697 107.159 74.1705 107.159C74.7121 107.159 75.1477 107.25 75.4773 107.432C75.8106 107.61 76.0682 107.818 76.25 108.057C76.4356 108.295 76.5795 108.506 76.6818 108.688H76.7841V104.364H78.483V116H76.8239V114.642H76.6818C76.5795 114.828 76.4318 115.04 76.2386 115.278C76.0492 115.517 75.7879 115.725 75.4545 115.903C75.1212 116.081 74.6894 116.17 74.1591 116.17ZM74.5341 114.722C75.0227 114.722 75.4356 114.593 75.7727 114.335C76.1136 114.074 76.3712 113.712 76.5455 113.25C76.7235 112.788 76.8125 112.25 76.8125 111.636C76.8125 111.03 76.7254 110.5 76.5511 110.045C76.3769 109.591 76.1212 109.237 75.7841 108.983C75.447 108.729 75.0303 108.602 74.5341 108.602C74.0227 108.602 73.5966 108.735 73.2557 109C72.9148 109.265 72.6572 109.627 72.483 110.085C72.3125 110.544 72.2273 111.061 72.2273 111.636C72.2273 112.22 72.3144 112.744 72.4886 113.21C72.6629 113.676 72.9205 114.045 73.2614 114.318C73.6061 114.587 74.0303 114.722 74.5341 114.722ZM80.9077 116V107.273H82.6065V116H80.9077ZM81.7656 105.926C81.4702 105.926 81.2164 105.828 81.0043 105.631C80.7959 105.43 80.6918 105.191 80.6918 104.915C80.6918 104.634 80.7959 104.396 81.0043 104.199C81.2164 103.998 81.4702 103.898 81.7656 103.898C82.0611 103.898 82.313 103.998 82.5213 104.199C82.7334 104.396 82.8395 104.634 82.8395 104.915C82.8395 105.191 82.7334 105.43 82.5213 105.631C82.313 105.828 82.0611 105.926 81.7656 105.926ZM90.4205 112.381V107.273H92.125V116H90.4545V114.489H90.3636C90.1629 114.955 89.8409 115.343 89.3977 115.653C88.9583 115.96 88.411 116.114 87.7557 116.114C87.1951 116.114 86.6989 115.991 86.267 115.744C85.839 115.494 85.5019 115.125 85.2557 114.636C85.0133 114.148 84.892 113.544 84.892 112.824V107.273H86.5909V112.619C86.5909 113.214 86.7557 113.687 87.0852 114.04C87.4148 114.392 87.8428 114.568 88.3693 114.568C88.6875 114.568 89.0038 114.489 89.3182 114.33C89.6364 114.17 89.8996 113.93 90.108 113.608C90.3201 113.286 90.4242 112.877 90.4205 112.381ZM94.4077 116V107.273H96.0384V108.693H96.1463C96.3281 108.212 96.6255 107.837 97.0384 107.568C97.4512 107.295 97.9455 107.159 98.5213 107.159C99.1046 107.159 99.5933 107.295 99.9872 107.568C100.385 107.841 100.679 108.216 100.868 108.693H100.959C101.167 108.227 101.499 107.856 101.953 107.58C102.408 107.299 102.949 107.159 103.578 107.159C104.37 107.159 105.016 107.407 105.516 107.903C106.019 108.4 106.271 109.148 106.271 110.148V116H104.572V110.307C104.572 109.716 104.411 109.288 104.089 109.023C103.768 108.758 103.383 108.625 102.936 108.625C102.383 108.625 101.953 108.795 101.646 109.136C101.339 109.473 101.186 109.907 101.186 110.438V116H99.4929V110.199C99.4929 109.725 99.3452 109.345 99.0497 109.057C98.7543 108.769 98.3698 108.625 97.8963 108.625C97.5743 108.625 97.277 108.71 97.0043 108.881C96.7353 109.047 96.5175 109.28 96.3509 109.58C96.188 109.879 96.1065 110.225 96.1065 110.619V116H94.4077Z" fill="#424242"/>
<path d="M118 108.667L122 112.667L126 108.667" stroke="black" stroke-linecap="square"/>
<path d="M192.534 104.364V116H190.773V106.125H190.705L187.92 107.943V106.261L190.824 104.364H192.534ZM195.438 113.727V112.307L200.466 104.364H201.585V106.455H200.875L197.278 112.148V112.239H204.17V113.727H195.438ZM200.955 116V113.295L200.966 112.648V104.364H202.631V116H200.955Z" fill="#424242"/>
<rect x="45" y="145" width="129" height="30" fill="white"/>
<rect x="45" y="145" width="129" height="30" stroke="#0B99FF" stroke-width="2"/>
<rect width="28" height="28" transform="translate(46 146)" fill="white"/>
<path d="M53.8038 153.242C53.6547 153.244 53.5127 153.306 53.4089 153.413C53.305 153.52 53.2479 153.663 53.2501 153.813V166.188C53.249 166.262 53.2628 166.336 53.2906 166.405C53.3184 166.474 53.3596 166.537 53.412 166.59C53.4643 166.644 53.5267 166.686 53.5954 166.714C53.6642 166.743 53.738 166.758 53.8126 166.758C53.8871 166.758 53.9609 166.743 54.0297 166.714C54.0984 166.686 54.1608 166.644 54.2131 166.59C54.2655 166.537 54.3068 166.474 54.3345 166.405C54.3623 166.336 54.3761 166.262 54.3751 166.188V160.42L56.7899 162.835C56.8417 162.889 56.9038 162.932 56.9725 162.962C57.0412 162.992 57.1151 163.007 57.1899 163.008C57.2648 163.009 57.339 162.995 57.4083 162.966C57.4776 162.938 57.5405 162.896 57.5934 162.843C57.6464 162.79 57.6882 162.728 57.7165 162.658C57.7448 162.589 57.7589 162.515 57.7582 162.44C57.7574 162.365 57.7417 162.291 57.712 162.222C57.6823 162.154 57.6392 162.092 57.5853 162.04L56.108 160.563H63.8921L62.4149 162.04C62.3609 162.092 62.3178 162.154 62.2881 162.222C62.2584 162.291 62.2427 162.365 62.2419 162.44C62.2412 162.515 62.2554 162.589 62.2836 162.658C62.3119 162.728 62.3538 162.79 62.4067 162.843C62.4596 162.896 62.5225 162.938 62.5918 162.966C62.6611 162.995 62.7354 163.009 62.8102 163.008C62.885 163.007 62.959 162.992 63.0277 162.962C63.0963 162.932 63.1584 162.889 63.2103 162.835L65.6251 160.42V166.188C65.624 166.262 65.6378 166.336 65.6656 166.405C65.6934 166.474 65.7346 166.537 65.787 166.59C65.8393 166.644 65.9017 166.686 65.9704 166.714C66.0392 166.743 66.113 166.758 66.1876 166.758C66.2621 166.758 66.3359 166.743 66.4047 166.714C66.4734 166.686 66.5358 166.644 66.5881 166.59C66.6405 166.537 66.6818 166.474 66.7095 166.405C66.7373 166.336 66.7511 166.262 66.7501 166.188V153.813C66.7511 153.738 66.7373 153.664 66.7095 153.595C66.6818 153.526 66.6405 153.463 66.5881 153.41C66.5358 153.357 66.4734 153.314 66.4047 153.286C66.3359 153.257 66.2621 153.242 66.1876 153.242C66.113 153.242 66.0392 153.257 65.9704 153.286C65.9017 153.314 65.8393 153.357 65.787 153.41C65.7346 153.463 65.6934 153.526 65.6656 153.595C65.6378 153.664 65.624 153.738 65.6251 153.813V159.58L63.2103 157.165C63.1584 157.111 63.0963 157.068 63.0277 157.038C62.959 157.008 62.885 156.993 62.8102 156.992C62.7354 156.991 62.6611 157.005 62.5918 157.034C62.5225 157.062 62.4596 157.104 62.4067 157.157C62.3538 157.21 62.3119 157.272 62.2836 157.342C62.2554 157.411 62.2412 157.485 62.2419 157.56C62.2427 157.635 62.2584 157.709 62.2881 157.778C62.3178 157.846 62.3609 157.908 62.4149 157.96L63.8921 159.438H56.108L57.5853 157.96C57.6392 157.908 57.6823 157.846 57.712 157.778C57.7417 157.709 57.7574 157.635 57.7582 157.56C57.7589 157.485 57.7448 157.411 57.7165 157.342C57.6882 157.272 57.6464 157.21 57.5934 157.157C57.5405 157.104 57.4776 157.062 57.4083 157.034C57.339 157.005 57.2648 156.991 57.1899 156.992C57.1151 156.993 57.0412 157.008 56.9725 157.038C56.9038 157.068 56.8417 157.111 56.7899 157.165L54.3751 159.58V153.813C54.3761 153.737 54.3621 153.662 54.3338 153.593C54.3054 153.523 54.2634 153.46 54.2101 153.406C54.1568 153.353 54.0934 153.311 54.0236 153.283C53.9538 153.255 53.8791 153.241 53.8038 153.242Z" fill="#888888"/>
<path d="M79.1193 166V164.727L83.0568 160.648C83.4773 160.205 83.8239 159.816 84.0966 159.483C84.3731 159.146 84.5795 158.826 84.7159 158.523C84.8523 158.22 84.9205 157.898 84.9205 157.557C84.9205 157.17 84.8295 156.837 84.6477 156.557C84.4659 156.273 84.2178 156.055 83.9034 155.903C83.589 155.748 83.2348 155.67 82.8409 155.67C82.4242 155.67 82.0606 155.756 81.75 155.926C81.4394 156.097 81.2008 156.337 81.0341 156.648C80.8674 156.958 80.7841 157.322 80.7841 157.739H79.108C79.108 157.03 79.2708 156.411 79.5966 155.881C79.9223 155.35 80.3693 154.939 80.9375 154.648C81.5057 154.352 82.1515 154.205 82.875 154.205C83.6061 154.205 84.25 154.35 84.8068 154.642C85.3674 154.93 85.8049 155.324 86.1193 155.824C86.4337 156.32 86.5909 156.881 86.5909 157.506C86.5909 157.938 86.5095 158.36 86.3466 158.773C86.1875 159.186 85.9091 159.646 85.5114 160.153C85.1136 160.657 84.5606 161.269 83.8523 161.989L81.5398 164.409V164.494H86.7784V166H79.1193ZM92.983 166.193C92.0852 166.189 91.3182 165.953 90.6818 165.483C90.0455 165.013 89.5587 164.33 89.2216 163.432C88.8845 162.534 88.7159 161.453 88.7159 160.188C88.7159 158.926 88.8845 157.848 89.2216 156.955C89.5625 156.061 90.0511 155.379 90.6875 154.909C91.3277 154.439 92.0928 154.205 92.983 154.205C93.8731 154.205 94.6364 154.441 95.2727 154.915C95.9091 155.384 96.3958 156.066 96.733 156.96C97.0739 157.85 97.2443 158.926 97.2443 160.188C97.2443 161.456 97.0758 162.54 96.7386 163.438C96.4015 164.331 95.9148 165.015 95.2784 165.489C94.642 165.958 93.8769 166.193 92.983 166.193ZM92.983 164.676C93.7708 164.676 94.3864 164.292 94.8295 163.523C95.2765 162.754 95.5 161.642 95.5 160.188C95.5 159.222 95.3977 158.405 95.1932 157.739C94.9924 157.068 94.7027 156.561 94.3239 156.216C93.9489 155.867 93.5019 155.693 92.983 155.693C92.1989 155.693 91.5833 156.08 91.1364 156.852C90.6894 157.625 90.464 158.737 90.4602 160.188C90.4602 161.157 90.5606 161.977 90.7614 162.648C90.9659 163.314 91.2557 163.82 91.6307 164.165C92.0057 164.506 92.4564 164.676 92.983 164.676Z" fill="#424242"/>
<rect width="28" height="28" transform="translate(187 146)" fill="white"/>
<path d="M207.758 153.804C207.755 153.655 207.694 153.513 207.587 153.409C207.48 153.305 207.336 153.248 207.187 153.25H194.812C194.738 153.249 194.664 153.263 194.594 153.291C194.525 153.318 194.462 153.36 194.409 153.412C194.356 153.464 194.314 153.527 194.285 153.595C194.256 153.664 194.242 153.738 194.242 153.813C194.242 153.887 194.256 153.961 194.285 154.03C194.314 154.098 194.356 154.161 194.409 154.213C194.462 154.265 194.525 154.307 194.594 154.335C194.664 154.362 194.738 154.376 194.812 154.375H200.579L198.164 156.79C198.11 156.842 198.067 156.904 198.038 156.972C198.008 157.041 197.992 157.115 197.992 157.19C197.991 157.265 198.005 157.339 198.033 157.408C198.062 157.478 198.103 157.54 198.156 157.593C198.209 157.646 198.272 157.688 198.341 157.716C198.411 157.745 198.485 157.759 198.56 157.758C198.635 157.757 198.709 157.742 198.777 157.712C198.846 157.682 198.908 157.639 198.96 157.585L200.437 156.108V163.892L198.96 162.415C198.908 162.361 198.846 162.318 198.777 162.288C198.709 162.258 198.635 162.243 198.56 162.242C198.485 162.241 198.411 162.255 198.341 162.284C198.272 162.312 198.209 162.354 198.156 162.407C198.103 162.46 198.062 162.523 198.033 162.592C198.005 162.661 197.991 162.735 197.992 162.81C197.992 162.885 198.008 162.959 198.038 163.028C198.067 163.096 198.11 163.158 198.164 163.21L200.579 165.625H194.812C194.738 165.624 194.664 165.638 194.594 165.666C194.525 165.693 194.462 165.735 194.409 165.787C194.356 165.839 194.314 165.902 194.285 165.97C194.256 166.039 194.242 166.113 194.242 166.188C194.242 166.262 194.256 166.336 194.285 166.405C194.314 166.473 194.356 166.536 194.409 166.588C194.462 166.64 194.525 166.682 194.594 166.71C194.664 166.737 194.738 166.751 194.812 166.75H207.187C207.262 166.751 207.336 166.737 207.405 166.71C207.474 166.682 207.537 166.64 207.59 166.588C207.643 166.536 207.685 166.473 207.714 166.405C207.743 166.336 207.758 166.262 207.758 166.188C207.758 166.113 207.743 166.039 207.714 165.97C207.685 165.902 207.643 165.839 207.59 165.787C207.537 165.735 207.474 165.693 207.405 165.666C207.336 165.638 207.262 165.624 207.187 165.625H201.42L203.835 163.21C203.889 163.158 203.932 163.096 203.962 163.028C203.991 162.959 204.007 162.885 204.008 162.81C204.009 162.735 203.994 162.661 203.966 162.592C203.938 162.523 203.896 162.46 203.843 162.407C203.79 162.354 203.727 162.312 203.658 162.284C203.589 162.255 203.514 162.241 203.44 162.242C203.365 162.243 203.291 162.258 203.222 162.288C203.153 162.318 203.091 162.361 203.039 162.415L201.562 163.892V156.108L203.039 157.585C203.091 157.639 203.153 157.682 203.222 157.712C203.291 157.742 203.365 157.757 203.44 157.758C203.514 157.759 203.589 157.745 203.658 157.716C203.727 157.688 203.79 157.646 203.843 157.593C203.896 157.54 203.938 157.478 203.966 157.408C203.994 157.339 204.009 157.265 204.008 157.19C204.007 157.115 203.991 157.041 203.962 156.972C203.932 156.904 203.889 156.842 203.835 156.79L201.42 154.375H207.187C207.262 154.376 207.337 154.362 207.407 154.334C207.477 154.305 207.54 154.263 207.593 154.21C207.647 154.157 207.688 154.093 207.717 154.024C207.745 153.954 207.759 153.879 207.758 153.804Z" fill="#888888"/>
<path d="M224.17 166.193C223.273 166.189 222.506 165.953 221.869 165.483C221.233 165.013 220.746 164.33 220.409 163.432C220.072 162.534 219.903 161.453 219.903 160.188C219.903 158.926 220.072 157.848 220.409 156.955C220.75 156.061 221.239 155.379 221.875 154.909C222.515 154.439 223.28 154.205 224.17 154.205C225.061 154.205 225.824 154.441 226.46 154.915C227.097 155.384 227.583 156.066 227.92 156.96C228.261 157.85 228.432 158.926 228.432 160.188C228.432 161.456 228.263 162.54 227.926 163.438C227.589 164.331 227.102 165.015 226.466 165.489C225.83 165.958 225.064 166.193 224.17 166.193ZM224.17 164.676C224.958 164.676 225.574 164.292 226.017 163.523C226.464 162.754 226.688 161.642 226.688 160.188C226.688 159.222 226.585 158.405 226.381 157.739C226.18 157.068 225.89 156.561 225.511 156.216C225.136 155.867 224.689 155.693 224.17 155.693C223.386 155.693 222.771 156.08 222.324 156.852C221.877 157.625 221.652 158.737 221.648 160.188C221.648 161.157 221.748 161.977 221.949 162.648C222.153 163.314 222.443 163.82 222.818 164.165C223.193 164.506 223.644 164.676 224.17 164.676ZM236.521 163.818V163.205C236.521 162.765 236.612 162.364 236.794 162C236.98 161.633 237.249 161.339 237.601 161.119C237.957 160.896 238.387 160.784 238.891 160.784C239.406 160.784 239.838 160.894 240.186 161.114C240.535 161.333 240.798 161.627 240.976 161.994C241.158 162.362 241.249 162.765 241.249 163.205V163.818C241.249 164.258 241.158 164.661 240.976 165.028C240.794 165.392 240.527 165.686 240.175 165.909C239.826 166.129 239.398 166.239 238.891 166.239C238.379 166.239 237.947 166.129 237.595 165.909C237.243 165.686 236.976 165.392 236.794 165.028C236.612 164.661 236.521 164.258 236.521 163.818ZM237.845 163.205V163.818C237.845 164.144 237.923 164.439 238.078 164.705C238.233 164.97 238.504 165.102 238.891 165.102C239.273 165.102 239.54 164.97 239.692 164.705C239.843 164.439 239.919 164.144 239.919 163.818V163.205C239.919 162.879 239.845 162.583 239.697 162.318C239.554 162.053 239.285 161.92 238.891 161.92C238.512 161.92 238.243 162.053 238.084 162.318C237.925 162.583 237.845 162.879 237.845 163.205ZM230.669 157.159V156.545C230.669 156.106 230.76 155.703 230.942 155.335C231.127 154.968 231.396 154.674 231.749 154.455C232.105 154.235 232.535 154.125 233.038 154.125C233.554 154.125 233.985 154.235 234.334 154.455C234.682 154.674 234.946 154.968 235.124 155.335C235.302 155.703 235.391 156.106 235.391 156.545V157.159C235.391 157.598 235.3 158.002 235.118 158.369C234.94 158.733 234.675 159.027 234.322 159.25C233.974 159.47 233.546 159.58 233.038 159.58C232.523 159.58 232.089 159.47 231.737 159.25C231.389 159.027 231.124 158.733 230.942 158.369C230.76 158.002 230.669 157.598 230.669 157.159ZM231.999 156.545V157.159C231.999 157.485 232.074 157.78 232.226 158.045C232.381 158.311 232.652 158.443 233.038 158.443C233.417 158.443 233.682 158.311 233.834 158.045C233.989 157.78 234.067 157.485 234.067 157.159V156.545C234.067 156.22 233.993 155.924 233.845 155.659C233.697 155.394 233.429 155.261 233.038 155.261C232.66 155.261 232.391 155.394 232.232 155.659C232.076 155.924 231.999 156.22 231.999 156.545ZM231.209 166L239.209 154.364H240.567L232.567 166H231.209Z" fill="#424242"/>
<rect width="28" height="28" transform="translate(46 200)" fill="white"/>
<path d="M59.0627 207.625C58.9882 207.624 58.9142 207.638 58.845 207.666C58.7758 207.693 58.7129 207.735 58.6598 207.787C58.6067 207.839 58.5645 207.902 58.5358 207.97C58.507 208.039 58.4922 208.113 58.4922 208.187C58.4922 208.262 58.507 208.336 58.5358 208.405C58.5645 208.473 58.6067 208.536 58.6598 208.588C58.7129 208.64 58.7758 208.682 58.845 208.709C58.9142 208.737 58.9882 208.751 59.0627 208.75H65.8127C65.8872 208.751 65.9612 208.737 66.0304 208.709C66.0996 208.682 66.1625 208.64 66.2156 208.588C66.2687 208.536 66.3109 208.473 66.3396 208.405C66.3684 208.336 66.3832 208.262 66.3832 208.187C66.3832 208.113 66.3684 208.039 66.3396 207.97C66.3109 207.902 66.2687 207.839 66.2156 207.787C66.1625 207.735 66.0996 207.693 66.0304 207.666C65.9612 207.638 65.8872 207.624 65.8127 207.625H59.0627ZM59.0627 210.25C58.9882 210.249 58.9142 210.263 58.845 210.291C58.7758 210.318 58.7129 210.36 58.6598 210.412C58.6067 210.464 58.5645 210.527 58.5358 210.595C58.507 210.664 58.4922 210.738 58.4922 210.812C58.4922 210.887 58.507 210.961 58.5358 211.03C58.5645 211.098 58.6067 211.161 58.6598 211.213C58.7129 211.265 58.7758 211.307 58.845 211.334C58.9142 211.362 58.9882 211.376 59.0627 211.375H63.5627C63.6372 211.376 63.7112 211.362 63.7804 211.334C63.8496 211.307 63.9125 211.265 63.9656 211.213C64.0187 211.161 64.0609 211.098 64.0896 211.03C64.1184 210.961 64.1332 210.887 64.1332 210.812C64.1332 210.738 64.1184 210.664 64.0896 210.595C64.0609 210.527 64.0187 210.464 63.9656 210.412C63.9125 210.36 63.8496 210.318 63.7804 210.291C63.7112 210.263 63.6372 210.249 63.5627 210.25H59.0627ZM59.0627 212.875C58.9882 212.874 58.9142 212.888 58.845 212.916C58.7758 212.943 58.7129 212.985 58.6598 213.037C58.6067 213.089 58.5645 213.152 58.5358 213.22C58.507 213.289 58.4922 213.363 58.4922 213.437C58.4922 213.512 58.507 213.586 58.5358 213.655C58.5645 213.723 58.6067 213.786 58.6598 213.838C58.7129 213.89 58.7758 213.932 58.845 213.959C58.9142 213.987 58.9882 214.001 59.0627 214H65.8127C65.8872 214.001 65.9612 213.987 66.0304 213.959C66.0996 213.932 66.1625 213.89 66.2156 213.838C66.2687 213.786 66.3109 213.723 66.3396 213.655C66.3684 213.586 66.3832 213.512 66.3832 213.437C66.3832 213.363 66.3684 213.289 66.3396 213.22C66.3109 213.152 66.2687 213.089 66.2156 213.037C66.1625 212.985 66.0996 212.943 66.0304 212.916C65.9612 212.888 65.8872 212.874 65.8127 212.875H59.0627ZM60.1877 215.5C59.2624 215.5 58.5002 216.262 58.5002 217.187V218.687C58.5002 219.613 59.2624 220.375 60.1877 220.375H65.8127C66.738 220.375 67.5002 219.613 67.5002 218.687V217.187C67.5002 216.262 66.738 215.5 65.8127 215.5H60.1877ZM55.6818 215.869C55.5699 215.869 55.4605 215.903 55.3677 215.965C55.2748 216.028 55.2027 216.117 55.1607 216.22C55.1186 216.324 55.1084 216.438 55.1315 216.547C55.1545 216.657 55.2097 216.757 55.29 216.835L55.8298 217.375H53.0627C52.9882 217.374 52.9142 217.388 52.845 217.416C52.7758 217.443 52.7129 217.485 52.6598 217.537C52.6067 217.589 52.5645 217.652 52.5358 217.72C52.507 217.789 52.4922 217.863 52.4922 217.937C52.4922 218.012 52.507 218.086 52.5358 218.155C52.5645 218.223 52.6067 218.286 52.6598 218.338C52.7129 218.39 52.7758 218.432 52.845 218.459C52.9142 218.487 52.9882 218.501 53.0627 218.5H55.8298L55.29 219.04C55.236 219.092 55.1929 219.154 55.1632 219.222C55.1335 219.291 55.1178 219.365 55.1171 219.44C55.1163 219.515 55.1305 219.589 55.1588 219.658C55.1871 219.728 55.2289 219.79 55.2818 219.843C55.3347 219.896 55.3977 219.938 55.467 219.966C55.5363 219.995 55.6105 220.009 55.6853 220.008C55.7602 220.007 55.8341 219.992 55.9028 219.962C55.9715 219.932 56.0336 219.889 56.0854 219.835L57.5854 218.335C57.6909 218.23 57.7501 218.087 57.7501 217.937C57.7501 217.788 57.6909 217.645 57.5854 217.54L56.0854 216.04C56.033 215.986 55.9702 215.943 55.9009 215.914C55.8316 215.884 55.7571 215.869 55.6818 215.869ZM60.1877 216.625H65.8127C66.1301 216.625 66.3752 216.87 66.3752 217.187V218.687C66.3752 219.005 66.1301 219.25 65.8127 219.25H60.1877C59.8703 219.25 59.6252 219.005 59.6252 218.687V217.187C59.6252 216.87 59.8703 216.625 60.1877 216.625Z" fill="#888888"/>
<path d="M83.5341 208.364V220H81.7727V210.125H81.7045L78.9205 211.943V210.261L81.8239 208.364H83.5341ZM86.4375 217.727V216.307L91.4659 208.364H92.5852V210.455H91.875L88.2784 216.148V216.239H95.1705V217.727H86.4375ZM91.9545 220V217.295L91.9659 216.648V208.364H93.6307V220H91.9545Z" fill="#424242"/>
<rect width="28" height="28" transform="translate(187 200)" fill="#E6E6E6"/>
<path d="M196.423 209.714C196.341 209.725 196.265 209.766 196.209 209.826L192.283 213.741L192.035 214L192.283 214.259L196.209 218.174C196.296 218.281 196.435 218.33 196.57 218.299C196.704 218.268 196.809 218.163 196.84 218.029C196.871 217.894 196.822 217.755 196.715 217.668L193.419 214.36H208.584L205.288 217.668C205.181 217.755 205.132 217.894 205.163 218.029C205.193 218.163 205.299 218.268 205.433 218.299C205.568 218.33 205.707 218.281 205.794 218.174L209.72 214.259L209.968 214L209.72 213.741L205.794 209.826C205.719 209.746 205.611 209.705 205.501 209.714C205.361 209.728 205.241 209.822 205.196 209.954C205.15 210.088 205.186 210.235 205.288 210.333L208.584 213.64H193.419L196.715 210.333C196.828 210.226 196.86 210.058 196.794 209.918C196.726 209.776 196.577 209.694 196.423 209.714Z" fill="black"/>
<rect width="28" height="28" transform="translate(219 200)" fill="white"/>
<g clip-path="url(#clip1_150_7032)">
<path d="M224 209.2H242M224 218.8H242M224 214H242" stroke="black" stroke-width="1.13333"/>
</g>
<rect width="28" height="28" transform="translate(251 200)" fill="white"/>
<g clip-path="url(#clip2_150_7032)">
<path d="M272.202 205.6H257.802C257.483 205.6 257.178 205.726 256.953 205.951C256.728 206.177 256.602 206.482 256.602 206.8V221.2C256.602 221.518 256.728 221.823 256.953 222.049C257.178 222.274 257.483 222.4 257.802 222.4H272.202C272.52 222.4 272.825 222.274 273.05 222.049C273.275 221.823 273.402 221.518 273.402 221.2V206.8C273.402 206.482 273.275 206.177 273.05 205.951C272.825 205.726 272.52 205.6 272.202 205.6Z" stroke="black" stroke-width="1.13333"/>
</g>
<rect width="28" height="28" transform="translate(46 254)" fill="#E6E6E6"/>
<g clip-path="url(#clip3_150_7032)">
<path fill-rule="evenodd" clip-rule="evenodd" d="M69 263.8H51V262.6H69V263.8ZM58.2 268.6H51V267.4H58.2V268.6ZM61.8 273.4H51V272.2H61.8V273.4Z" fill="#888888"/>
</g>
<rect width="28" height="28" transform="translate(78 254)" fill="white"/>
<g clip-path="url(#clip4_150_7032)">
<path fill-rule="evenodd" clip-rule="evenodd" d="M83 262.6H101V263.8H83V262.6ZM89 267.4H95V268.6H89V267.4ZM86.6 272.2H97.4V273.4H86.6V272.2Z" fill="#888888"/>
</g>
<rect width="28" height="28" transform="translate(110 254)" fill="white"/>
<g clip-path="url(#clip5_150_7032)">
<path fill-rule="evenodd" clip-rule="evenodd" d="M115 262.6H133V263.8H115V262.6ZM125.8 267.4H133V268.6H125.8V267.4ZM122.2 272.2H133V273.4H122.2V272.2Z" fill="#888888"/>
</g>
<rect width="28" height="28" transform="translate(187 254)" fill="#E6E6E6"/>
<g clip-path="url(#clip6_150_7032)">
<path d="M210 259.6H192M205.8 263.2H202.2V271.6H205.8V263.2ZM199.8 263.2H196.2V276.4H199.8V263.2Z" stroke="#888888" stroke-width="1.13333"/>
</g>
<rect width="28" height="28" transform="translate(219 254)" fill="white"/>
<g clip-path="url(#clip7_150_7032)">
<path d="M242 268H237.8M228.2 268H224M234.2 268H231.8M237.8 272.2H234.2V263.8H237.8V272.2ZM231.8 275.2H228.2V260.8H231.8V275.2Z" stroke="#888888" stroke-width="1.13333"/>
</g>
<rect width="28" height="28" transform="translate(251 254)" fill="white"/>
<g clip-path="url(#clip8_150_7032)">
<path d="M275 259.6H257M270.8 263.2H267.2V271.6H270.8V263.2ZM264.8 263.2H261.2V276.4H264.8V263.2Z" stroke="#888888" stroke-width="1.13333"/>
</g>
<path fill-rule="evenodd" clip-rule="evenodd" d="M296 268C296 267.646 296.14 267.307 296.391 267.057C296.641 266.807 296.98 266.667 297.333 266.667C297.687 266.667 298.026 266.807 298.276 267.057C298.526 267.307 298.667 267.646 298.667 268C298.667 268.354 298.526 268.693 298.276 268.943C298.026 269.193 297.687 269.333 297.333 269.333C296.98 269.333 296.641 269.193 296.391 268.943C296.14 268.693 296 268.354 296 268ZM302.667 268C302.667 267.646 302.807 267.307 303.057 267.057C303.307 266.807 303.646 266.667 304 266.667C304.354 266.667 304.693 266.807 304.943 267.057C305.193 267.307 305.333 267.646 305.333 268C305.333 268.354 305.193 268.693 304.943 268.943C304.693 269.193 304.354 269.333 304 269.333C303.646 269.333 303.307 269.193 303.057 268.943C302.807 268.693 302.667 268.354 302.667 268ZM309.333 268C309.333 267.646 309.474 267.307 309.724 267.057C309.974 266.807 310.313 266.667 310.667 266.667C311.02 266.667 311.359 266.807 311.609 267.057C311.86 267.307 312 267.646 312 268C312 268.354 311.86 268.693 311.609 268.943C311.359 269.193 311.02 269.333 310.667 269.333C310.313 269.333 309.974 269.193 309.724 268.943C309.474 268.693 309.333 268.354 309.333 268Z" fill="black"/>
</g>
<rect x="20.5" y="0.5" width="319" height="293" rx="11.5" stroke="#EAECF0"/>
</g>
<defs>
<filter id="filter0_dd_150_7032" x="0" y="0" width="360" height="334" filterUnits="userSpaceOnUse" color-interpolation-filters="sRGB">
<feFlood flood-opacity="0" result="BackgroundImageFix"/>
<feColorMatrix in="SourceAlpha" type="matrix" values="0 0 0 0 0 0 0 0 0 0 0 0 0 0 0 0 0 0 127 0" result="hardAlpha"/>
<feMorphology radius="4" operator="erode" in="SourceAlpha" result="effect1_dropShadow_150_7032"/>
<feOffset dy="8"/>
<feGaussianBlur stdDeviation="4"/>
<feColorMatrix type="matrix" values="0 0 0 0 0.0627451 0 0 0 0 0.0941176 0 0 0 0 0.156863 0 0 0 0.03 0"/>
<feBlend mode="normal" in2="BackgroundImageFix" result="effect1_dropShadow_150_7032"/>
<feColorMatrix in="SourceAlpha" type="matrix" values="0 0 0 0 0 0 0 0 0 0 0 0 0 0 0 0 0 0 127 0" result="hardAlpha"/>
<feMorphology radius="4" operator="erode" in="SourceAlpha" result="effect2_dropShadow_150_7032"/>
<feOffset dy="20"/>
<feGaussianBlur stdDeviation="12"/>
<feColorMatrix type="matrix" values="0 0 0 0 0.0627451 0 0 0 0 0.0941176 0 0 0 0 0.156863 0 0 0 0.08 0"/>
<feBlend mode="normal" in2="effect1_dropShadow_150_7032" result="effect2_dropShadow_150_7032"/>
<feBlend mode="normal" in="SourceGraphic" in2="effect2_dropShadow_150_7032" result="shape"/>
</filter>
<clipPath id="clip0_150_7032">
<rect x="20" width="320" height="294" rx="12" fill="white"/>
</clipPath>
<clipPath id="clip1_150_7032">
<rect width="18" height="18" fill="white" transform="translate(224 205)"/>
</clipPath>
<clipPath id="clip2_150_7032">
<rect width="18" height="18" fill="white" transform="translate(256 205)"/>
</clipPath>
<clipPath id="clip3_150_7032">
<rect width="18" height="18" fill="white" transform="translate(51 259)"/>
</clipPath>
<clipPath id="clip4_150_7032">
<rect width="18" height="18" fill="white" transform="translate(83 259)"/>
</clipPath>
<clipPath id="clip5_150_7032">
<rect width="18" height="18" fill="white" transform="translate(115 259)"/>
</clipPath>
<clipPath id="clip6_150_7032">
<rect width="18" height="18" fill="white" transform="translate(192 259)"/>
</clipPath>
<clipPath id="clip7_150_7032">
<rect width="18" height="18" fill="white" transform="translate(224 259)"/>
</clipPath>
<clipPath id="clip8_150_7032">
<rect width="18" height="18" fill="white" transform="translate(257 259)"/>
</clipPath>
</defs>
</svg>
