<svg width="40" height="40" viewBox="0 0 40 40" fill="none" xmlns="http://www.w3.org/2000/svg">
<path d="M19.9996 1.59998C9.84704 1.59998 1.59961 9.84741 1.59961 20C1.59961 30.1525 9.84704 38.4 19.9996 38.4C30.1522 38.4 38.3996 30.1525 38.3996 20C38.3996 9.84741 30.1522 1.59998 19.9996 1.59998ZM19.9996 3.19998C26.39 3.19998 31.9401 6.756 34.7809 12H19.9996C19.9693 11.9998 19.9391 12.0014 19.909 12.0047C15.7907 12.0513 12.4089 15.2283 12.0371 19.2625L6.42773 10.1203C9.48088 5.93093 14.4115 3.19998 19.9996 3.19998ZM5.45898 11.6015L13.1809 24.1844C13.2074 24.2295 13.2383 24.2718 13.273 24.3109L13.2746 24.314C14.6998 26.5268 17.1795 28 19.9996 28C21.1301 28 22.2047 27.7614 23.1809 27.3359L17.8559 36.6594C9.58358 35.6078 3.19961 28.5609 3.19961 20C3.19961 16.9358 4.02967 14.0732 5.45898 11.6015ZM19.9996 13.6C23.5437 13.6 26.3996 16.4559 26.3996 20C26.3996 21.1369 26.1034 22.2012 25.5871 23.125L25.5855 23.1265C25.5756 23.1418 25.5663 23.1575 25.5574 23.1734C24.457 25.1018 22.3864 26.4 19.9996 26.4C16.4555 26.4 13.5996 23.5441 13.5996 20C13.5996 16.4559 16.4555 13.6 19.9996 13.6ZM24.7777 13.6H35.5371C36.349 15.5722 36.7996 17.7326 36.7996 20C36.7996 29.2878 29.2875 36.8 19.9996 36.8C19.8733 36.8 19.7486 36.7934 19.623 36.7906L26.9465 23.9672C26.9641 23.937 26.9798 23.9057 26.9934 23.8734C27.6326 22.7245 27.9996 21.4045 27.9996 20C27.9996 17.3829 26.7285 15.0607 24.7777 13.6Z" fill="#C3C3C3"/>
</svg>
