<svg width="40" height="40" viewBox="0 0 40 40" fill="none" xmlns="http://www.w3.org/2000/svg">
<path d="M11.9996 0.799988C10.6836 0.799988 9.59961 1.88401 9.59961 3.19999V36.8C9.59961 38.116 10.6836 39.2 11.9996 39.2H27.9996C29.3156 39.2 30.3996 38.116 30.3996 36.8V3.19999C30.3996 1.88401 29.3156 0.799988 27.9996 0.799988H11.9996ZM11.9996 2.39999H27.9996C28.4516 2.39999 28.7996 2.74796 28.7996 3.19999V36.8C28.7996 37.252 28.4516 37.6 27.9996 37.6H11.9996C11.5476 37.6 11.1996 37.252 11.1996 36.8V3.19999C11.1996 2.74796 11.5476 2.39999 11.9996 2.39999ZM19.9996 3.99999C19.7874 3.99999 19.584 4.08427 19.4339 4.2343C19.2839 4.38433 19.1996 4.58781 19.1996 4.79999C19.1996 5.01216 19.2839 5.21564 19.4339 5.36567C19.584 5.5157 19.7874 5.59999 19.9996 5.59999C20.2118 5.59999 20.4153 5.5157 20.5653 5.36567C20.7153 5.21564 20.7996 5.01216 20.7996 4.79999C20.7996 4.58781 20.7153 4.38433 20.5653 4.2343C20.4153 4.08427 20.2118 3.99999 19.9996 3.99999Z" fill="#C3C3C3"/>
</svg>
