<svg width="40" height="40" viewBox="0 0 40 40" fill="none" xmlns="http://www.w3.org/2000/svg">
<path d="M2.4 4C1.08438 4 0 5.08438 0 6.4V29.6C0 30.9156 1.08438 32 2.4 32H16.325L15.9 34.7C15.7813 35.45 15.1594 36 14.4 36H13.6C13.575 36 13.55 36 13.525 36C13.0844 36.0219 12.7406 36.3969 12.7625 36.8375C12.7844 37.2781 13.1594 37.6219 13.6 37.6H26.4C26.6875 37.6031 26.9563 37.4531 27.1031 37.2031C27.2469 36.9531 27.2469 36.6469 27.1031 36.3969C26.9563 36.1469 26.6875 35.9969 26.4 36H25.6C24.8406 36 24.2188 35.45 24.1 34.7L23.675 32H37.6C38.9156 32 40 30.9156 40 29.6V6.4C40 5.08438 38.9156 4 37.6 4H2.4ZM2.4 5.6H37.6C38.0531 5.6 38.4 5.94688 38.4 6.4V25.6H1.6V6.4C1.6 5.94688 1.94688 5.6 2.4 5.6ZM1.6 27.2H38.4V29.6C38.4 30.0531 38.0531 30.4 37.6 30.4H2.4C1.94688 30.4 1.6 30.0531 1.6 29.6V27.2ZM20 27.925C19.5188 27.925 19.125 28.3188 19.125 28.8C19.125 29.2812 19.5188 29.675 20 29.675C20.4813 29.675 20.875 29.2812 20.875 28.8C20.875 28.3188 20.4813 27.925 20 27.925ZM17.975 32H22.025L22.5 34.95C22.5594 35.3281 22.6938 35.6813 22.875 36H17.125C17.3063 35.6813 17.4406 35.3281 17.5 34.95L17.975 32Z" fill="#C3C3C3"/>
</svg>
