<svg width="40" height="40" viewBox="0 0 40 40" fill="none" xmlns="http://www.w3.org/2000/svg">
<path d="M19.9877 3.18904C19.9489 3.18988 19.9103 3.19353 19.872 3.19997H4.00016C3.788 3.19999 3.58453 3.28429 3.4345 3.43431C3.28448 3.58434 3.20018 3.78781 3.20016 3.99997V19.8656C3.18588 19.952 3.18588 20.0401 3.20016 20.1265V36C3.20018 36.2121 3.28448 36.4156 3.4345 36.5656C3.58453 36.7157 3.788 36.8 4.00016 36.8H19.8658C19.9522 36.8143 20.0403 36.8143 20.1267 36.8H36.0002C36.2123 36.8 36.4158 36.7157 36.5658 36.5656C36.7158 36.4156 36.8001 36.2121 36.8002 36V20.1343C36.8144 20.048 36.8144 19.9598 36.8002 19.8734V3.99997C36.8001 3.78781 36.7158 3.58434 36.5658 3.43431C36.4158 3.28429 36.2123 3.19999 36.0002 3.19997H20.1236C20.0787 3.19247 20.0332 3.18881 19.9877 3.18904ZM4.80016 4.79997H19.2002V19.2H4.80016V4.79997ZM20.8002 4.79997H35.2002V19.2H20.8002V4.79997ZM4.80016 20.8H19.2002V35.2H4.80016V20.8ZM20.8002 20.8H35.2002V35.2H20.8002V20.8Z" fill="#C3C3C3"/>
</svg>
