<svg width="40" height="40" viewBox="0 0 40 40" fill="none" xmlns="http://www.w3.org/2000/svg">
<path d="M12.0004 2.40002C6.70802 2.40002 2.40039 6.70765 2.40039 12V28C2.40039 33.2924 6.70802 37.6 12.0004 37.6H28.0004C33.2928 37.6 37.6004 33.2924 37.6004 28V12C37.6004 6.70765 33.2928 2.40002 28.0004 2.40002H12.0004ZM12.0004 4.00002H28.0004C32.428 4.00002 36.0004 7.5724 36.0004 12V28C36.0004 32.4277 32.428 36 28.0004 36H12.0004C7.57276 36 4.00039 32.4277 4.00039 28V12C4.00039 7.5724 7.57276 4.00002 12.0004 4.00002ZM9.29258 14.4531C8.73018 14.4531 8.31602 14.8541 8.31602 15.3813C8.31602 15.9013 8.73018 16.3016 9.29258 16.3016C9.85498 16.3016 10.2707 15.9013 10.2707 15.3813C10.2707 14.8541 9.85498 14.4531 9.29258 14.4531ZM17.6301 14.9094C14.7189 14.9094 12.891 16.9482 12.891 20.225C12.891 23.4946 14.6837 25.5469 17.6301 25.5469C20.5693 25.5469 22.3551 23.4874 22.3551 20.225C22.3551 16.9554 20.5549 14.9102 17.6301 14.9094ZM27.9738 14.9094C25.7594 14.9094 24.2816 16.1116 24.2816 17.9188C24.2816 19.4092 25.1183 20.2962 26.9535 20.725L28.2613 21.0422C29.6045 21.3582 30.1957 21.8217 30.1957 22.5953C30.1957 23.4953 29.2676 24.1485 28.002 24.1485C26.6459 24.1485 25.7035 23.5373 25.5691 22.575H24.0066C24.1194 24.3894 25.6305 25.5485 27.8801 25.5485C30.2849 25.5485 31.7895 24.333 31.7895 22.3922C31.7895 20.8666 30.932 20.0223 28.8504 19.5375L27.7332 19.2625C26.4116 18.9529 25.877 18.5381 25.877 17.8141C25.877 16.8997 26.7072 16.3031 27.952 16.3031C29.1336 16.3031 29.9477 16.8851 30.0957 17.8203H31.6285C31.5373 16.1115 30.0338 14.9094 27.9738 14.9094ZM17.6301 16.3781C19.5573 16.3781 20.7457 17.8698 20.7457 20.225C20.7457 22.5658 19.5565 24.0781 17.6301 24.0781C15.6829 24.0781 14.502 22.5666 14.502 20.225C14.502 17.8698 15.7173 16.3789 17.6301 16.3781ZM8.54102 17.6453V25.3016H10.0457V17.6453H8.54102Z" fill="#C3C3C3"/>
</svg>
