<svg width="40" height="40" viewBox="0 0 40 40" fill="none" xmlns="http://www.w3.org/2000/svg">
<path d="M3.20078 4.79999C1.88481 4.79999 0.800781 5.88401 0.800781 7.19999V32.8C0.800781 34.116 1.88481 35.2 3.20078 35.2H36.8008C38.1168 35.2 39.2008 34.116 39.2008 32.8V7.19999C39.2008 5.88401 38.1168 4.79999 36.8008 4.79999H3.20078ZM3.20078 6.39999H36.8008C37.2528 6.39999 37.6008 6.74796 37.6008 7.19999V32.8C37.6008 33.252 37.2528 33.6 36.8008 33.6H3.20078C2.74876 33.6 2.40078 33.252 2.40078 32.8V7.19999C2.40078 6.74796 2.74876 6.39999 3.20078 6.39999Z" fill="#C3C3C3"/>
</svg>
