<svg width="40" height="40" viewBox="0 0 40 40" fill="none" xmlns="http://www.w3.org/2000/svg">
<path d="M12.7996 0.799988C11.0417 0.799988 9.59961 2.24212 9.59961 3.99999V36C9.59961 37.7579 11.0417 39.2 12.7996 39.2H27.1996C28.9575 39.2 30.3996 37.7579 30.3996 36V3.99999C30.3996 2.24212 28.9575 0.799988 27.1996 0.799988H12.7996ZM12.7996 2.39999H27.1996C28.0929 2.39999 28.7996 3.10665 28.7996 3.99999V36C28.7996 36.8933 28.0929 37.6 27.1996 37.6H12.7996C11.9063 37.6 11.1996 36.8933 11.1996 36V3.99999C11.1996 3.10665 11.9063 2.39999 12.7996 2.39999ZM17.9996 3.99999C17.3372 3.99999 16.7996 4.53759 16.7996 5.19999C16.7996 5.86239 17.3372 6.39999 17.9996 6.39999H21.9996C22.662 6.39999 23.1996 5.86239 23.1996 5.19999C23.1996 4.53759 22.662 3.99999 21.9996 3.99999H17.9996Z" fill="#C3C3C3"/>
</svg>
