<svg width="40" height="40" viewBox="0 0 40 40" fill="none" xmlns="http://www.w3.org/2000/svg">
<g clip-path="url(#clip0_128_6897)">
<path d="M5.6 8C4.28402 8 3.2 9.08402 3.2 10.4V29.6H0V30.3266C0 30.8338 0.35865 31.2719 0.85625 31.3719L3.55625 31.9109C3.85065 31.9701 4.15233 32 4.45312 32H35.5469C35.8477 32 36.1486 31.9701 36.4438 31.9109L39.1453 31.3719C39.6429 31.2727 40.0016 30.8346 40.0016 30.3266V29.6H36.8V10.4C36.8 9.08402 35.716 8 34.4 8H5.6ZM5.6 9.6H17.6C17.6 10.0416 17.9584 10.4 18.4 10.4H21.6C22.0416 10.4 22.4 10.0416 22.4 9.6H34.4C34.852 9.6 35.2 9.94798 35.2 10.4V29.6H4.8V10.4C4.8 9.94798 5.14798 9.6 5.6 9.6Z" fill="#C3C3C3"/>
</g>
<defs>
<clipPath id="clip0_128_6897">
<rect width="40" height="40" fill="white"/>
</clipPath>
</defs>
</svg>
