<svg width="40" height="40" viewBox="0 0 40 40" fill="none" xmlns="http://www.w3.org/2000/svg">
<path d="M19.9633 1.60468C19.8993 1.60477 19.8351 1.61173 19.7711 1.61249C19.4513 1.61637 19.1335 1.62697 18.818 1.64686C18.6809 1.65558 18.5441 1.66788 18.407 1.67968C18.0763 1.70789 17.7481 1.74367 17.4227 1.78905C17.368 1.79673 17.3132 1.80119 17.2586 1.80936C16.8567 1.86908 16.4608 1.94452 16.068 2.02968C15.9844 2.04789 15.9014 2.06808 15.818 2.08749C15.4288 2.17757 15.0424 2.27635 14.6633 2.39061C14.6538 2.39348 14.6446 2.3971 14.6352 2.39999C14.2113 2.52848 13.7954 2.67365 13.3852 2.83124C13.3507 2.84449 13.3165 2.85839 13.282 2.87186C12.4549 3.1954 11.6579 3.57624 10.8945 4.01093C10.8647 4.02782 10.8337 4.04073 10.8039 4.0578C10.7609 4.0825 10.7201 4.10937 10.6773 4.13436C10.5148 4.22986 10.3538 4.32781 10.1945 4.42811C10.0751 4.50289 9.95695 4.57912 9.83984 4.65624C9.73945 4.72273 9.64039 4.79097 9.54141 4.85936C9.35664 4.9863 9.17329 5.11418 8.99453 5.24686C8.98593 5.25328 8.97811 5.26075 8.96953 5.26718C6.78807 6.89232 5.05495 8.93579 3.82109 11.2234C3.68519 11.4754 3.55581 11.7299 3.43203 11.9875C3.32255 12.2141 3.21832 12.4433 3.11797 12.675C3.11162 12.6897 3.10397 12.704 3.09766 12.7187C2.99545 12.9564 2.90096 13.1978 2.80859 13.4406C2.79392 13.4793 2.7777 13.5174 2.76328 13.5562C2.56105 14.0989 2.38478 14.6546 2.23359 15.2203C2.16421 15.4799 2.10118 15.7422 2.04297 16.0062C2.03582 16.0386 2.02807 16.0708 2.02109 16.1031C1.97211 16.3312 1.92875 16.561 1.88828 16.7922C1.87567 16.8637 1.86099 16.9346 1.84922 17.0062C1.82045 17.1829 1.79638 17.3607 1.77266 17.5391C1.75229 17.6903 1.73305 17.8419 1.71641 17.9937C1.70393 18.1094 1.69393 18.2259 1.68359 18.3422C1.66621 18.5341 1.65124 18.7262 1.63984 18.9187C1.63406 19.019 1.6284 19.1196 1.62422 19.2203C1.61433 19.4513 1.60825 19.6824 1.60703 19.9141C1.6069 19.9428 1.60547 19.9712 1.60547 20C1.60547 20.0335 1.60842 20.0665 1.60859 20.1C1.60974 20.3394 1.61529 20.579 1.62578 20.8187C1.62955 20.9053 1.63332 20.9918 1.63828 21.0781C1.65086 21.2955 1.66794 21.5124 1.68828 21.7297C1.69685 21.8221 1.70648 21.9143 1.71641 22.0062C1.73724 22.1976 1.76137 22.3885 1.78828 22.5797C1.8063 22.7087 1.82387 22.8375 1.84453 22.9656C1.87082 23.1274 1.90134 23.2886 1.93203 23.45C1.95949 23.5953 1.98713 23.7403 2.01797 23.8844C2.04595 24.0143 2.07772 24.1438 2.10859 24.2734C2.1511 24.4528 2.1937 24.6321 2.24141 24.8094C2.26635 24.9017 2.29309 24.9938 2.31953 25.0859C2.38038 25.2987 2.44349 25.5108 2.51172 25.7203C2.53337 25.7866 2.55646 25.8526 2.57891 25.9187C2.65577 26.1459 2.73727 26.3707 2.82266 26.5937C2.84248 26.6455 2.86327 26.6968 2.88359 26.7484C2.97945 26.9922 3.07933 27.2334 3.18516 27.4719C3.20158 27.5089 3.21847 27.5458 3.23516 27.5828C3.34039 27.8158 3.45031 28.0458 3.56484 28.2734C3.59605 28.3356 3.62818 28.3974 3.66016 28.4594C3.76548 28.6629 3.87254 28.8651 3.98516 29.0641C4.00972 29.1077 4.03207 29.1518 4.05703 29.1953C4.08241 29.2395 4.11102 29.2811 4.13672 29.325C4.22691 29.4784 4.3188 29.6307 4.41328 29.7812C4.4971 29.9155 4.58276 30.0483 4.66953 30.1797C4.72832 30.2682 4.78739 30.3563 4.84766 30.4437C4.97788 30.6337 5.1098 30.821 5.24609 31.0047C5.25251 31.0133 5.25998 31.0211 5.26641 31.0297C6.89156 33.2111 8.93502 34.9443 11.2227 36.1781C11.4746 36.314 11.7291 36.4434 11.9867 36.5672C12.2133 36.6767 12.4425 36.7809 12.6742 36.8812C12.689 36.8876 12.7032 36.8952 12.718 36.9016C12.9556 37.0038 13.1971 37.0983 13.4398 37.1906C13.4786 37.2053 13.5167 37.2215 13.5555 37.2359C14.0981 37.4382 14.6538 37.6144 15.2195 37.7656C15.4792 37.835 15.7414 37.898 16.0055 37.9562C16.0378 37.9634 16.07 37.9711 16.1023 37.9781C16.3304 38.0271 16.5602 38.0705 16.7914 38.1109C16.8629 38.1235 16.9338 38.1382 17.0055 38.15C17.1821 38.1788 17.36 38.2028 17.5383 38.2266C17.6895 38.2469 17.8412 38.2662 17.993 38.2828C18.1086 38.2953 18.2251 38.3053 18.3414 38.3156C18.5333 38.333 18.7254 38.348 18.918 38.3594C19.0182 38.3651 19.1188 38.3708 19.2195 38.375C19.4505 38.3849 19.6817 38.391 19.9133 38.3922C19.9421 38.3923 19.9704 38.3937 19.9992 38.3937C20.0328 38.3937 20.0657 38.3908 20.0992 38.3906C20.3386 38.3895 20.5782 38.3839 20.818 38.3734C20.9046 38.3697 20.9911 38.3659 21.0773 38.3609C21.2947 38.3483 21.5116 38.3313 21.7289 38.3109C21.8213 38.3024 21.9135 38.2927 22.0055 38.2828C22.1968 38.262 22.3878 38.2378 22.5789 38.2109C22.7079 38.1929 22.8367 38.1753 22.9648 38.1547C23.1266 38.1284 23.2878 38.0979 23.4492 38.0672C23.5946 38.0397 23.7395 38.0121 23.8836 37.9812C24.0136 37.9533 24.143 37.9215 24.2727 37.8906C24.4521 37.8481 24.6313 37.8055 24.8086 37.7578C24.9009 37.7329 24.993 37.7061 25.0852 37.6797C25.2979 37.6188 25.51 37.5557 25.7195 37.4875C25.7858 37.4658 25.8518 37.4427 25.918 37.4203C26.1451 37.3434 26.3699 37.2619 26.593 37.1766C26.6447 37.1567 26.696 37.1359 26.7477 37.1156C26.9914 37.0198 27.2326 36.9199 27.4711 36.8141C27.5081 36.7976 27.5451 36.7807 27.582 36.764C27.815 36.6588 28.045 36.5489 28.2727 36.4344C28.3348 36.4032 28.3966 36.371 28.4586 36.3391C28.6621 36.2337 28.8643 36.1267 29.0633 36.014C29.1069 35.9895 29.151 35.9671 29.1945 35.9422C29.2388 35.9168 29.2803 35.8882 29.3242 35.8625C29.4776 35.7723 29.63 35.6804 29.7805 35.5859C29.9148 35.5021 30.0475 35.4164 30.1789 35.3297C30.2674 35.2709 30.3556 35.2118 30.443 35.1516C30.6329 35.0213 30.8203 34.8894 31.0039 34.7531C31.0072 34.7507 31.01 34.7477 31.0133 34.7453C31.0186 34.7413 31.0236 34.7368 31.0289 34.7328C33.2104 33.1076 34.9435 31.0642 36.1773 28.7766C36.3132 28.5246 36.4426 28.2701 36.5664 28.0125C36.6759 27.7859 36.7801 27.5567 36.8805 27.325C36.8866 27.3108 36.8931 27.297 36.8992 27.2828L36.9008 27.2812C37.003 27.0436 37.0975 26.8021 37.1898 26.5594C37.2022 26.5268 37.2167 26.4952 37.2289 26.4625C37.2312 26.4563 37.2329 26.4499 37.2352 26.4437C37.4374 25.9011 37.6137 25.3454 37.7648 24.7797C37.8342 24.52 37.8973 24.2578 37.9555 23.9937C37.9609 23.9691 37.9673 23.9449 37.9727 23.9203C37.9743 23.9125 37.9757 23.9047 37.9773 23.8969C38.0263 23.6688 38.0697 23.439 38.1102 23.2078C38.1228 23.1363 38.1374 23.0654 38.1492 22.9937C38.178 22.8171 38.2021 22.6392 38.2258 22.4609C38.2462 22.3097 38.2654 22.158 38.282 22.0062C38.2945 21.8906 38.3045 21.7741 38.3148 21.6578C38.3322 21.4659 38.3472 21.2738 38.3586 21.0812C38.3644 20.981 38.37 20.8804 38.3742 20.7797C38.3841 20.5487 38.3902 20.3175 38.3914 20.0859C38.3915 20.0571 38.393 20.0288 38.393 20C38.393 19.9664 38.39 19.9335 38.3898 19.9C38.3887 19.6606 38.3831 19.421 38.3727 19.1812C38.3689 19.0946 38.3651 19.0082 38.3602 18.9219C38.3476 18.7045 38.3305 18.4876 38.3102 18.2703C38.3016 18.1779 38.292 18.0857 38.282 17.9937C38.2612 17.8024 38.2371 17.6114 38.2102 17.4203C38.1921 17.2913 38.1746 17.1625 38.1539 17.0344C38.1276 16.8726 38.0971 16.7114 38.0664 16.55C38.0389 16.4046 38.0113 16.2597 37.9805 16.1156C37.9525 15.9856 37.9207 15.8562 37.8898 15.7266C37.8473 15.5471 37.8047 15.3679 37.757 15.1906C37.7321 15.0983 37.7053 15.0062 37.6789 14.9141C37.6181 14.7013 37.5549 14.4892 37.4867 14.2797C37.4651 14.2134 37.442 14.1474 37.4195 14.0812C37.3427 13.8541 37.2612 13.6293 37.1758 13.4062C37.156 13.3545 37.1352 13.3032 37.1148 13.2516C37.019 13.0078 36.9191 12.7666 36.8133 12.5281C36.7969 12.4911 36.78 12.4542 36.7633 12.4172C36.658 12.1842 36.5481 11.9542 36.4336 11.7266C36.4024 11.6644 36.3703 11.6026 36.3383 11.5406C36.233 11.3371 36.1259 11.1349 36.0133 10.9359C35.9887 10.8923 35.9664 10.8482 35.9414 10.8047C35.9212 10.7695 35.8993 10.7365 35.8789 10.7016C35.7354 10.4565 35.5848 10.2157 35.4305 9.97811C35.3795 9.89923 35.3309 9.81846 35.2789 9.74061C35.1333 9.52379 34.9818 9.31166 34.8273 9.10155C34.7993 9.06336 34.7729 9.02389 34.7445 8.98593C34.5942 8.78367 34.4379 8.58822 34.2805 8.39374C34.2405 8.34462 34.2006 8.29555 34.1602 8.24686C33.9944 8.04637 33.8254 7.84977 33.6523 7.6578C33.6259 7.62852 33.5993 7.59941 33.5727 7.5703C32.787 6.7102 31.9299 5.93789 31.0148 5.25624L31.0133 5.25468L31.0117 5.25311C30.7827 5.0826 30.5508 4.91684 30.3148 4.7578C30.3074 4.7528 30.3004 4.74717 30.293 4.74218C30.2652 4.72346 30.2364 4.70605 30.2086 4.68749C29.8564 4.45365 29.4966 4.23311 29.1305 4.02499C29.0055 3.95356 28.8823 3.87948 28.7555 3.81093C28.6334 3.74528 28.5086 3.68624 28.3852 3.62343C28.2026 3.52999 28.0197 3.43744 27.8336 3.34999C27.7247 3.29907 27.6153 3.2503 27.5055 3.20155C27.2628 3.09326 27.0177 2.99013 26.7695 2.89218C26.7132 2.87002 26.6574 2.84659 26.6008 2.82499C26.2803 2.70216 25.9562 2.58795 25.6273 2.4828C24.9472 2.26532 24.2491 2.08656 23.5367 1.94843C23.4807 1.9375 23.4241 1.92915 23.368 1.91874C23.0912 1.86774 22.8131 1.82131 22.532 1.7828C22.4208 1.76738 22.3092 1.75402 22.1977 1.74061C21.9857 1.7155 21.7727 1.69443 21.5586 1.67655C21.4704 1.66904 21.3829 1.65623 21.2945 1.64999C21.2452 1.6465 21.1955 1.64839 21.1461 1.6453C20.7784 1.6228 20.4085 1.60851 20.0352 1.6078C20.0231 1.60778 20.0113 1.60624 19.9992 1.60624C19.9872 1.60623 19.9753 1.60466 19.9633 1.60468ZM19.9992 3.20624C20.5818 3.20624 21.1575 3.23517 21.7242 3.29218C21.9987 3.31978 22.2711 3.3548 22.5414 3.3953C22.5685 3.39942 22.5956 3.40355 22.6227 3.4078C22.8803 3.44768 23.1363 3.49241 23.3898 3.54374L23.3977 3.5453C23.415 3.54885 23.4319 3.5542 23.4492 3.5578C23.9081 3.65244 24.3584 3.76751 24.8023 3.89843C24.8714 3.91878 24.9415 3.9366 25.0102 3.9578C25.016 3.95961 25.0215 3.96224 25.0273 3.96405C25.1743 4.00963 25.3181 4.06147 25.4633 4.11093C25.6224 4.1653 25.7824 4.21898 25.9398 4.27811C26.0541 4.32095 26.1674 4.36569 26.2805 4.41093C26.4185 4.46622 26.5548 4.52539 26.6914 4.58436C27.1337 4.77519 27.5686 4.97954 27.9898 5.20624C28.0327 5.22931 28.0737 5.25622 28.1164 5.27968C28.5189 5.50084 28.9102 5.73981 29.2914 5.99218C29.3505 6.0313 29.4109 6.06789 29.4695 6.1078C29.8671 6.37833 30.2524 6.66584 30.6242 6.96874C30.6946 7.02613 30.7625 7.08666 30.832 7.1453C31.1471 7.41062 31.4517 7.6874 31.7461 7.97499C31.8122 8.03972 31.881 8.10121 31.9461 8.16718C32.2526 8.47663 32.5426 8.80171 32.8242 9.13436C32.9403 9.27216 33.0527 9.41396 33.1648 9.55624C33.3378 9.77454 33.5027 9.99953 33.6648 10.2266C33.8703 10.5158 34.0678 10.813 34.257 11.1187C34.3733 11.3058 34.4902 11.4924 34.5992 11.6844C34.7099 11.8798 34.8174 12.0755 34.9195 12.2734C35.0733 12.5716 35.2193 12.8743 35.3555 13.1828C35.5773 13.6831 35.7745 14.189 35.9445 14.7L35.9477 14.7094C35.9485 14.7119 35.9484 14.7147 35.9492 14.7172C36.0202 14.9312 36.0841 15.147 36.1461 15.3625C36.1702 15.4474 36.1952 15.5317 36.218 15.6172C36.2571 15.7617 36.2922 15.9065 36.3273 16.0516C36.3614 16.1944 36.3954 16.337 36.4258 16.4812C36.4468 16.5791 36.466 16.677 36.4852 16.775C36.5253 16.9838 36.5637 17.1931 36.5961 17.4047C36.5975 17.4136 36.5994 17.4223 36.6008 17.4312C36.6023 17.4411 36.6024 17.4511 36.6039 17.4609C36.6386 17.6925 36.6678 17.9263 36.693 18.1609C36.7329 18.523 36.7579 18.8847 36.7742 19.2469C36.7835 19.4613 36.7885 19.6772 36.7898 19.8937C36.7921 20.2345 36.7863 20.5748 36.768 20.9141C36.7573 21.1159 36.7403 21.3158 36.7227 21.5156C36.6898 21.8801 36.6508 22.2438 36.5945 22.6047C36.571 22.758 36.5409 22.9091 36.5133 23.0609C36.4395 23.4615 36.3563 23.8608 36.2539 24.2547C36.2276 24.3566 36.1977 24.4567 36.1695 24.5578C36.0476 24.9932 35.9136 25.4256 35.757 25.85C35.7384 25.9006 35.7167 25.9496 35.6977 26C35.5747 26.3236 35.4327 26.6388 35.2898 26.9547C35.1736 27.2116 35.0528 27.4659 34.9242 27.7156C34.8089 27.9397 34.6858 28.1606 34.5602 28.3797C34.3602 28.7282 34.1604 29.0774 33.9367 29.4094C33.6482 29.8376 33.3376 30.2499 33.0117 30.6484C32.9908 30.674 32.9719 30.7011 32.9508 30.7266C32.6423 31.0994 32.3151 31.4556 31.9758 31.8C31.9297 31.8466 31.885 31.8944 31.8383 31.9406C31.5269 32.2493 31.1997 32.5415 30.8648 32.825C30.7723 32.903 30.6813 32.9816 30.5867 33.0578C30.2875 33.3002 29.9761 33.5284 29.6602 33.75C29.5031 33.8596 29.3454 33.9685 29.1836 34.0734C28.9003 34.2579 28.6098 34.4325 28.3148 34.6C28.1194 34.7107 27.9237 34.8182 27.7258 34.9203C27.4276 35.0741 27.1249 35.2201 26.8164 35.3562C26.3161 35.5781 25.8102 35.7753 25.2992 35.9453L25.2898 35.9484C25.2873 35.9492 25.2845 35.9492 25.282 35.95C25.068 36.0209 24.8522 36.0849 24.6367 36.1469C24.5518 36.1709 24.4675 36.196 24.382 36.2187C24.2375 36.2578 24.0927 36.293 23.9477 36.3281C23.8048 36.3621 23.6622 36.3962 23.518 36.4266C23.4201 36.4475 23.3222 36.4667 23.2242 36.4859C23.0154 36.526 22.8061 36.5645 22.5945 36.5969C22.5856 36.5982 22.5769 36.6002 22.568 36.6016C22.5581 36.6031 22.5481 36.6032 22.5383 36.6047C22.3067 36.6393 22.0729 36.6685 21.8383 36.6937C21.4762 36.7337 21.1145 36.7587 20.7523 36.775C20.5379 36.7843 20.322 36.7893 20.1055 36.7906C19.7647 36.7928 19.4244 36.7871 19.0852 36.7687C18.8859 36.7582 18.6887 36.7407 18.4914 36.7234C18.1159 36.6898 17.7412 36.6492 17.3695 36.5906C17.2358 36.5699 17.1038 36.5442 16.9711 36.5203C16.5588 36.4452 16.1482 36.3601 15.743 36.2547C15.6416 36.2285 15.542 36.1983 15.4414 36.1703C15.006 36.0483 14.5736 35.9144 14.1492 35.7578C14.0997 35.7396 14.0516 35.7187 14.0023 35.7C13.6701 35.5738 13.3467 35.4269 13.0227 35.2797C12.7812 35.17 12.5421 35.0565 12.307 34.9359C12.066 34.8123 11.8282 34.6808 11.593 34.5453C11.2659 34.3569 10.9382 34.1688 10.6258 33.9594C10.6088 33.948 10.5911 33.938 10.5742 33.9266C10.1621 33.6482 9.76511 33.349 9.38047 33.0359C9.33993 33.0029 9.29885 32.9709 9.25859 32.9375C8.89977 32.6398 8.55667 32.3247 8.22422 31.9984C8.16566 31.9408 8.10546 31.8852 8.04766 31.8266C7.74962 31.5254 7.46749 31.2091 7.19297 30.8859C7.10508 30.782 7.01612 30.6799 6.93047 30.5734C6.69608 30.2835 6.47506 29.9822 6.26016 29.6765C6.14352 29.5099 6.02774 29.3424 5.91641 29.1703C5.73792 28.8956 5.56954 28.6138 5.40703 28.3281C5.29114 28.124 5.17918 27.9193 5.07266 27.7125C4.92307 27.4218 4.78049 27.127 4.64766 26.8266C4.42245 26.3197 4.2227 25.8069 4.05078 25.2891C3.97682 25.0663 3.91031 24.8415 3.84609 24.6172C3.82521 24.5432 3.8035 24.4697 3.78359 24.3953C3.7414 24.2399 3.70398 24.0841 3.66641 23.9281C3.63488 23.7951 3.60259 23.6624 3.57422 23.5281C3.55151 23.4226 3.53234 23.3167 3.51172 23.2109C3.47316 23.0093 3.43526 22.8073 3.40391 22.6031C3.40006 22.5787 3.3967 22.5541 3.39297 22.5297C3.35906 22.3022 3.33027 22.0726 3.30547 21.8422C3.26527 21.4785 3.24059 21.1152 3.22422 20.7516C3.21491 20.5371 3.2099 20.3212 3.20859 20.1047C3.20639 19.7644 3.21217 19.4246 3.23047 19.0859C3.24108 18.8851 3.25828 18.6863 3.27578 18.4875C3.30927 18.1147 3.34899 17.7425 3.40703 17.3734C3.42827 17.2364 3.45598 17.1015 3.48047 16.9656C3.5554 16.5551 3.63952 16.1472 3.74453 15.7437C3.77072 15.6423 3.80089 15.5428 3.82891 15.4422C3.95088 15.0069 4.08477 14.5743 4.24141 14.15C4.25986 14.0999 4.28187 14.0514 4.30078 14.0016C4.42539 13.6736 4.56974 13.3528 4.71484 13.0328C4.82724 12.7849 4.94408 12.5396 5.06797 12.2984C5.18957 12.0616 5.31771 11.8281 5.45078 11.5969C5.63986 11.2685 5.82965 10.9402 6.03984 10.6266C6.05119 10.6096 6.06124 10.5919 6.07266 10.575C6.35104 10.1628 6.65025 9.76588 6.96328 9.38124C6.99631 9.34071 7.02828 9.29962 7.06172 9.25936C7.35937 8.90054 7.67455 8.55744 8.00078 8.22499C8.05842 8.16643 8.11404 8.10623 8.17266 8.04843C8.47386 7.75039 8.79012 7.46826 9.11328 7.19374C9.21721 7.10586 9.31929 7.01688 9.42578 6.93124C9.71575 6.69685 10.017 6.47583 10.3227 6.26093C10.4893 6.1443 10.6568 6.02851 10.8289 5.91718C11.0985 5.74199 11.3753 5.57698 11.6555 5.41718C11.9522 5.24829 12.2532 5.0944 12.5555 4.9453C12.6789 4.88453 12.8022 4.82342 12.9273 4.76561C13.9851 4.27533 15.0713 3.90155 16.1711 3.64374C16.2564 3.62407 16.3415 3.6043 16.4273 3.58593C16.7566 3.51416 17.0871 3.45154 17.418 3.39999C17.4221 3.39934 17.4263 3.39907 17.4305 3.39843C17.6051 3.37198 17.7822 3.35232 17.9586 3.33124C18.1051 3.31328 18.2511 3.29687 18.3977 3.2828C18.6319 3.26095 18.8669 3.24194 19.1039 3.22968C19.1372 3.22789 19.1706 3.22814 19.2039 3.22655C19.4674 3.21445 19.7325 3.20624 19.9992 3.20624ZM25.1992 7.99999C23.9659 7.99999 22.9218 8.81886 22.5523 9.93436C21.7264 9.7156 20.8634 9.59999 19.9977 9.59999C15.1418 9.59999 11.0954 12.858 9.90547 17.3031C9.67816 17.2428 9.4445 17.2 9.19922 17.2C7.6623 17.2 6.39922 18.4631 6.39922 20C6.39922 21.5369 7.6623 22.8 9.19922 22.8C9.4445 22.8 9.67816 22.7572 9.90547 22.6969C11.0954 27.142 15.1418 30.4 19.9977 30.4C20.8634 30.4 21.7264 30.2844 22.5523 30.0656C22.9218 31.1811 23.9659 32 25.1992 32C26.7361 32 27.9992 30.7369 27.9992 29.2C27.9992 28.5203 27.7421 27.9026 27.3336 27.4156C29.2483 25.5284 30.4727 22.9211 30.4727 20C30.4727 17.0789 29.2483 14.4716 27.3336 12.5844C27.7421 12.0973 27.9992 11.4797 27.9992 10.8C27.9992 9.26307 26.7361 7.99999 25.1992 7.99999ZM25.1992 9.59999C25.8714 9.59999 26.3992 10.1278 26.3992 10.8C26.3992 11.4722 25.8714 12 25.1992 12C24.527 12 23.9992 11.4722 23.9992 10.8C23.9992 10.1278 24.527 9.59999 25.1992 9.59999ZM19.9977 11.2C20.8708 11.2 21.739 11.3385 22.5289 11.5937C22.876 12.7461 23.9395 13.6 25.1992 13.6C25.46 13.6 25.7075 13.5507 25.9477 13.4828C27.5425 14.9357 28.6187 16.9262 28.8258 19.2H26.3414C25.9431 16.0575 23.2427 13.6 19.9977 13.6C19.1168 13.6 18.2762 13.7813 17.5102 14.1078L16.3086 11.9906C17.4266 11.4849 18.673 11.2 19.9977 11.2ZM14.9148 12.7781L16.132 14.9187C14.5973 16.0913 13.5977 17.9337 13.5977 20C13.5977 22.0663 14.5973 23.9086 16.132 25.0812L14.9148 27.2219C13.0967 25.9588 11.7998 24.0277 11.3383 21.7781C11.7438 21.292 11.9992 20.6769 11.9992 20C11.9992 19.3218 11.7436 18.7053 11.3367 18.2187C11.7983 15.9703 13.1002 14.0417 14.9148 12.7781ZM19.9977 15.2C22.6413 15.2 24.7977 17.3564 24.7977 20C24.7977 22.6436 22.6413 24.8 19.9977 24.8C17.354 24.8 15.1977 22.6436 15.1977 20C15.1977 17.3564 17.354 15.2 19.9977 15.2ZM9.19922 18.8C9.87144 18.8 10.3992 19.3278 10.3992 20C10.3992 20.6722 9.87144 21.2 9.19922 21.2C8.527 21.2 7.99922 20.6722 7.99922 20C7.99922 19.3278 8.527 18.8 9.19922 18.8ZM26.3414 20.8H28.8289C28.6204 23.0722 27.5425 25.0643 25.9477 26.5172C25.7075 26.4493 25.46 26.4 25.1992 26.4C23.939 26.4 22.8755 27.2547 22.5289 28.4078C21.7397 28.6626 20.8702 28.8 19.9977 28.8C18.6731 28.8 17.4276 28.513 16.3086 28.0078L17.5102 25.8922C18.2762 26.2187 19.1168 26.4 19.9977 26.4C23.2427 26.4 25.9431 23.9425 26.3414 20.8ZM25.1992 28C25.8714 28 26.3992 28.5278 26.3992 29.2C26.3992 29.8722 25.8714 30.4 25.1992 30.4C24.527 30.4 23.9992 29.8722 23.9992 29.2C23.9992 28.5278 24.527 28 25.1992 28Z" fill="#C3C3C3"/>
</svg>
